<svg xmlns="http://www.w3.org/2000/svg" fill="none" viewBox="0 0 37.51521298174442 41.38888888888889" style="max-height: 500px" width="37.51521298174442" height="41.38888888888889">
<path fill="#0036D9" d="M67.6065 30.3825C67.6921 30.4082 67.735 30.4768 67.7863 30.5367C68.4201 31.2476 69.0539 31.9499 69.6877 32.6608C69.7306 32.7122 69.7734 32.7636 69.8162 32.815C69.859 32.8663 69.859 32.9177 69.8162 32.9691C69.7734 33.0291 69.722 33.0976 69.6792 33.1575C68.8741 34.1853 67.8292 34.8962 66.6215 35.3758C65.6794 35.7441 64.6944 35.9411 63.6838 35.9925C62.6389 36.0353 61.6025 35.9668 60.5919 35.7099C58.5278 35.1788 56.9176 34.014 55.7785 32.2154C55.256 31.3932 54.9391 30.4939 54.7593 29.5432C54.5537 28.4469 54.528 27.3506 54.5965 26.2372C54.6479 25.3293 54.8021 24.4386 55.0847 23.5735C55.4188 22.5457 55.9069 21.595 56.6093 20.7643C57.5857 19.5994 58.819 18.82 60.2836 18.4175C61.8167 17.9978 63.3583 17.9893 64.8914 18.3747C67.0241 18.9143 68.5229 20.2247 69.4308 22.2203C69.7905 23.0082 69.9961 23.839 70.116 24.6955C70.2188 25.4235 70.2616 26.1601 70.253 26.9052C70.253 27.3934 70.253 27.8902 70.253 28.3784C70.253 28.8666 70.2273 28.5497 70.0817 28.5582H59.7183C59.6069 28.5582 59.4956 28.5582 59.3843 28.5668C59.2986 28.5668 59.2644 28.6182 59.2815 28.7038C59.5641 30.3226 60.3949 31.5131 61.988 32.0784C62.6475 32.3096 63.3412 32.3439 64.0435 32.2754C64.4118 32.2411 64.7715 32.1812 65.1313 32.0784C66.022 31.8129 66.7757 31.3332 67.3924 30.6395C67.4438 30.5367 67.4951 30.4254 67.6065 30.3825ZM59.3157 25.3379C59.4357 25.4064 59.5641 25.3807 59.684 25.3807H65.5766C65.6623 25.3807 65.6965 25.3379 65.6965 25.2522C65.7137 24.6356 65.6451 24.0275 65.3882 23.4536C65.037 22.6571 64.4375 22.1432 63.5896 21.9376C63.3926 21.8948 63.1956 21.852 62.9986 21.8349C62.519 21.7835 62.0394 21.8263 61.5769 21.9805C60.9088 22.1946 60.412 22.6228 60.0352 23.2052C59.7525 23.642 59.5727 24.1217 59.4442 24.6184C59.3843 24.8582 59.3243 25.0981 59.3157 25.3379Z"/>
<path fill="#00AB40" d="M130.89 28.531H125.794C125.408 28.531 125.391 28.4968 125.477 28.925C125.631 29.6873 125.939 30.3724 126.462 30.9463C127.096 31.6572 127.892 32.0683 128.834 32.2139C129.562 32.3252 130.282 32.2824 131.001 32.1197C132.02 31.8884 132.877 31.366 133.571 30.5694C133.793 30.3125 133.768 30.3296 133.982 30.5694C134.624 31.2889 135.267 31.9998 135.9 32.7192C136.037 32.8734 136.037 32.8819 135.9 33.0532C135.352 33.7727 134.684 34.3637 133.905 34.8176C132.868 35.4171 131.746 35.7854 130.556 35.9139C129.271 36.0595 127.986 36.0167 126.727 35.6912C124.706 35.1687 123.113 34.0296 121.974 32.2738C121.4 31.3831 121.058 30.3896 120.869 29.3447C120.689 28.3512 120.698 27.3405 120.741 26.3384C120.783 25.088 121.049 23.8803 121.546 22.7326C122.111 21.4308 122.933 20.3345 124.089 19.5123C125.092 18.8014 126.205 18.3646 127.421 18.1933C128.586 18.022 129.742 18.0562 130.881 18.3218C133.065 18.8356 134.607 20.1289 135.549 22.1502C135.969 23.0581 136.192 24.0259 136.303 25.0194C136.38 25.6618 136.389 26.3127 136.389 26.9637V28.3683C136.389 28.5139 136.363 28.531 136.209 28.5396H135.943C134.256 28.5396 132.569 28.5396 130.881 28.5396L130.89 28.531ZM125.477 25.3449C125.588 25.4049 125.708 25.3792 125.811 25.3792H131.704C131.823 25.3706 131.858 25.3449 131.858 25.2164C131.858 24.6512 131.806 24.103 131.592 23.572C131.25 22.7155 130.642 22.1674 129.734 21.9361C129.52 21.8847 129.297 21.8505 129.074 21.8333C127.747 21.7477 126.719 22.2359 126.059 23.4178C125.828 23.8289 125.674 24.2743 125.571 24.7282C125.537 24.9338 125.477 25.1308 125.477 25.3449Z"/>
<path fill="#00AB40" d="M100.2 26.6977C100.234 27.8797 100.148 28.9588 99.8828 30.0123C99.5916 31.1857 99.0863 32.2649 98.3155 33.207C97.262 34.5003 95.9259 35.3568 94.3072 35.7336C92.7484 36.0933 91.181 36.0933 89.6308 35.6994C87.5324 35.1683 85.9821 33.9093 84.9458 32.025C84.4319 31.1 84.1407 30.0894 83.978 29.0445C83.8238 28.0595 83.8067 27.066 83.8581 26.0725C83.9352 24.745 84.2349 23.4688 84.8345 22.2697C85.8794 20.1799 87.5581 18.8781 89.8106 18.3213C90.6928 18.1072 91.5921 18.0473 92.5085 18.0901C93.365 18.1329 94.1958 18.2614 95.0009 18.5526C97.1335 19.3149 98.6067 20.7794 99.4717 22.8521C99.7886 23.6144 99.9771 24.4195 100.088 25.2417C100.165 25.7642 100.174 26.2781 100.2 26.6977ZM88.4745 27.1517C88.4574 27.8797 88.5173 28.6163 88.6886 29.3528C88.8257 29.9181 89.0312 30.4577 89.3738 30.9459C89.7592 31.494 90.256 31.8966 90.8898 32.1021C91.5578 32.3162 92.2259 32.3334 92.9025 32.1707C93.7761 31.9565 94.4099 31.4255 94.8553 30.6547C95.0694 30.2778 95.215 29.8667 95.3178 29.4385C95.4463 28.916 95.5148 28.385 95.5491 27.854C95.6176 26.869 95.5919 25.8926 95.3863 24.9248C95.2493 24.2996 95.0266 23.7086 94.6497 23.1776C94.2386 22.5866 93.7076 22.1669 93.0139 21.97C92.3801 21.7901 91.7377 21.773 91.0953 21.9443C90.5729 22.0727 90.1275 22.3297 89.7507 22.7151C89.468 22.9977 89.2539 23.3146 89.0826 23.6744C88.8942 24.0598 88.7743 24.4623 88.6801 24.882C88.5259 25.61 88.4574 26.3637 88.4745 27.1517Z"/>
<path fill="#00AB40" d="M102.96 27.0322V18.8185C102.96 18.3474 102.917 18.3988 103.363 18.3988H107.183C107.243 18.3988 107.285 18.4417 107.294 18.5016C107.294 18.5787 107.311 18.6558 107.32 18.7329C107.354 19.1782 107.38 19.6236 107.405 20.069C107.405 20.1204 107.405 20.1803 107.431 20.2317C107.431 20.266 107.482 20.2831 107.517 20.2574C107.585 20.1974 107.645 20.1289 107.705 20.069C108.227 19.5037 108.818 19.0326 109.512 18.6986C110.214 18.356 110.96 18.1761 111.73 18.1076C112.39 18.0477 113.049 18.0819 113.7 18.1847C114.189 18.2618 114.66 18.3988 115.105 18.6215C116.09 19.0926 116.758 19.8634 117.195 20.8484C117.469 21.4565 117.632 22.0903 117.726 22.7412C117.829 23.4092 117.863 24.0687 117.863 24.7454V35.2715C117.863 35.7254 117.914 35.6826 117.443 35.6826H113.383C113.272 35.6741 113.238 35.6484 113.238 35.5456C113.238 35.4428 113.238 35.3486 113.238 35.2458V24.6511C113.238 24.2486 113.204 23.8461 113.101 23.4606C113.067 23.3236 113.015 23.178 112.955 23.0495C112.75 22.587 112.407 22.2701 111.936 22.0817C111.405 21.8761 110.848 21.8419 110.292 21.859C110.009 21.8676 109.735 21.9018 109.461 21.9789C108.681 22.2016 108.099 22.6727 107.662 23.3493C107.602 23.4435 107.568 23.5463 107.568 23.6662V35.2373C107.568 35.3486 107.568 35.4599 107.568 35.5713C107.568 35.6484 107.517 35.6912 107.44 35.6912H103.123C103.003 35.6826 102.969 35.6569 102.969 35.5285V35.2287C102.969 32.4879 102.969 29.7643 102.969 27.0322H102.96Z"/>
<path fill="#0036D9" d="M50.3714 24.8375H48.3929C48.2473 24.8289 48.2387 24.8289 48.2216 24.6919C48.2045 24.5463 48.1873 24.4007 48.1702 24.2551C48.0246 23.4072 47.6221 22.722 46.8941 22.2509C46.3031 21.8741 45.6522 21.7713 44.967 21.8313C44.7186 21.8484 44.4788 21.8912 44.2475 21.9683C43.5709 22.191 43.057 22.6192 42.7144 23.2445C42.4489 23.7155 42.3033 24.2294 42.2091 24.7604C42.0978 25.3685 42.0549 25.9766 42.0549 26.5933C42.0549 27.21 42.0549 27.6468 42.0806 28.1692C42.1063 28.7602 42.192 29.3512 42.3461 29.925C42.4318 30.2248 42.5346 30.5245 42.6802 30.7986C43.057 31.5009 43.6309 31.972 44.4188 32.1604C45.0697 32.3232 45.7292 32.3232 46.3716 32.1262C47.1938 31.8778 47.7848 31.3725 48.0846 30.5588C48.1702 30.3276 48.2045 30.0792 48.2302 29.8394C48.2473 29.7195 48.2559 29.7109 48.3758 29.7023H52.3927C52.5211 29.7109 52.5383 29.728 52.5383 29.8651C52.5383 30.4817 52.4184 31.0898 52.2042 31.6637C51.6475 33.1882 50.6283 34.3188 49.198 35.081C48.3672 35.5178 47.485 35.7919 46.56 35.9032C45.2239 36.066 43.9049 35.9889 42.6116 35.5863C40.616 34.9526 39.2029 33.6421 38.3121 31.7579C37.9181 30.9357 37.6954 30.062 37.5498 29.1627C37.3785 28.075 37.37 26.9787 37.4385 25.8824C37.507 24.6491 37.764 23.45 38.295 22.3195C38.9288 20.9833 39.8452 19.8956 41.1128 19.1248C41.9693 18.6109 42.8943 18.3111 43.8792 18.1655C44.6929 18.0456 45.5066 18.0285 46.3202 18.1056C47.7077 18.234 48.9839 18.6452 50.0973 19.5188C51.3135 20.478 52.0586 21.7114 52.3755 23.2102C52.4612 23.6384 52.5211 24.0667 52.5297 24.5035C52.5297 24.5806 52.5297 24.6576 52.5297 24.7347C52.5297 24.7861 52.4869 24.8118 52.4441 24.8204C52.3584 24.8289 52.2642 24.8289 52.1785 24.8289C51.5876 24.8289 50.988 24.8289 50.3799 24.8289L50.3714 24.8375Z"/>
<path fill="#00AB40" d="M78.746 28.7309V35.3001C78.746 35.7112 78.7802 35.677 78.3606 35.677H74.2751C74.1552 35.6684 74.1295 35.6427 74.121 35.5142V22.2388C74.121 21.7506 74.1809 21.8105 73.7013 21.802H71.6543C71.5944 21.802 71.5515 21.7677 71.543 21.6992C71.543 21.6307 71.543 21.5622 71.543 21.5022V18.5816C71.543 18.4274 71.5687 18.4017 71.7143 18.4017H73.9839C74.061 18.4017 74.1124 18.3675 74.1124 18.2818V18.0163C74.1124 17.4425 74.1124 16.8772 74.1295 16.3034C74.1724 15.4811 74.3437 14.6846 74.6948 13.9395C75.3286 12.5948 76.3821 11.7126 77.7782 11.2244C78.3434 11.0274 78.9173 10.9161 79.5082 10.8647C79.8508 10.839 80.202 10.8047 80.5446 10.8219C81.2469 10.839 81.9407 10.9589 82.6344 11.1045C82.7714 11.1302 82.7886 11.1645 82.7886 11.3186C82.7886 11.9696 82.7886 12.6119 82.7714 13.2628C82.7714 13.614 82.7714 13.9566 82.7714 14.2992C82.7714 14.6418 82.7714 14.479 82.7714 14.5647C82.7714 14.676 82.7201 14.7103 82.6173 14.6846C82.3775 14.6247 82.1291 14.6161 81.8893 14.5904C81.3754 14.539 80.8615 14.5647 80.3562 14.6932C80.1849 14.736 80.0136 14.7959 79.8508 14.8816C79.4312 15.0872 79.14 15.4126 78.9601 15.8409C78.8402 16.1321 78.7717 16.4404 78.7631 16.7573C78.7631 17.2369 78.7631 17.7165 78.7631 18.1962C78.7631 18.6758 78.7631 18.3932 78.943 18.3932H81.8207C81.9064 18.3932 82.0006 18.3932 82.0863 18.4017C82.1376 18.4017 82.1719 18.436 82.1719 18.4874C82.1719 18.5388 82.1719 18.5987 82.1719 18.6587V21.545C82.1719 21.5964 82.1719 21.6564 82.1719 21.7163C82.1719 21.7677 82.1376 21.802 82.0863 21.802C82.0006 21.8105 81.9064 21.8105 81.8207 21.8105H79.0115C78.8402 21.8105 78.7545 21.8962 78.7545 22.0675V28.1999C78.7802 28.3712 78.7802 28.551 78.7802 28.7309H78.746Z"/>
<path fill="#0036D9" d="M18.5781 0.0590988C18.5867 0.0248395 18.6124 -0.0265493 18.6381 0.0162747C18.698 0.0933581 18.7409 0.187571 18.7837 0.273219C19.5888 1.89197 20.3939 3.51072 21.199 5.12947C22.0469 6.84243 22.8948 8.54683 23.7513 10.2598C25.5584 13.8998 27.3742 17.5399 29.1814 21.1799C30.2777 23.3811 31.3654 25.5822 32.4617 27.7834C33.7207 30.31 34.9712 32.8452 36.2302 35.3804C36.273 35.4575 36.3073 35.5431 36.3415 35.6116C36.3073 35.6973 36.2473 35.6716 36.1959 35.6802H26.1066C25.6698 35.6802 25.764 35.7487 25.5584 35.3461C23.9996 32.2285 22.4323 29.1195 20.8649 26.0019C20.1712 24.6144 19.4689 23.2269 18.7751 21.8394C18.7323 21.7623 18.698 21.6767 18.6638 21.5996C18.561 21.4626 18.5953 21.2998 18.5953 21.1457V0.530164C18.5953 0.367432 18.5953 0.213265 18.5781 0.0590988Z"/>
<path fill="#184CE9" d="M18.5794 0.059082C18.5794 0.213249 18.5879 0.367415 18.5879 0.530147V21.1457C18.5879 21.2998 18.5537 21.4625 18.6564 21.5996C18.6051 21.6082 18.5794 21.6338 18.5537 21.6767C18.4937 21.788 18.4423 21.8908 18.3824 22.0021C17.3717 24.0234 16.3611 26.0362 15.3504 28.0489C14.1257 30.4899 12.8923 32.9394 11.6676 35.3804C11.4877 35.7401 11.5562 35.6801 11.1965 35.6716C10.203 35.6544 9.20946 35.6287 8.21594 35.6031C7.23099 35.5774 6.2546 35.5602 5.26965 35.5345C4.27613 35.5088 3.28261 35.4917 2.28909 35.466C1.87798 35.4575 1.4583 35.4403 1.04719 35.4318C1.00437 35.4318 0.961545 35.4232 0.910156 35.4146C0.910156 35.2776 0.995804 35.1748 1.04719 35.072C2.06641 33.0336 3.08562 30.9952 4.10483 28.9568C5.38099 26.413 6.64858 23.8607 7.92474 21.3169C10.9652 15.2359 14.0143 9.15491 17.0548 3.0739C17.5173 2.15746 17.9713 1.24103 18.4423 0.316026C18.4766 0.221813 18.5023 0.127601 18.5794 0.059082Z"/>
<path fill="#028934" d="M25.5663 39.9828C25.4635 39.9828 25.3693 39.9914 25.2665 39.9914H18.9285C18.8172 39.9914 18.7058 39.9828 18.5945 39.9743V26.3562C18.5945 26.2192 18.5859 26.0907 18.5859 25.9537C18.5945 25.9194 18.6116 25.868 18.6373 25.9023C18.6973 25.9794 18.7401 26.0736 18.7915 26.1592C19.3139 27.2041 19.845 28.2576 20.3674 29.3025C22.0718 32.6942 23.7762 36.0859 25.4806 39.4775C25.5406 39.5974 25.592 39.7173 25.6433 39.8458C25.6091 39.8972 25.592 39.94 25.5663 39.9828Z"/>
<path fill="#00AB40" d="M18.5775 25.962C18.5775 26.0991 18.586 26.2275 18.586 26.3646V39.9826C18.4833 39.9912 18.3891 39.9998 18.2863 39.9998H12.1196C12.034 39.9998 11.9398 39.9998 11.8541 39.9912C11.7942 39.9826 11.7856 39.9398 11.8027 39.897C11.837 39.8113 11.8712 39.7343 11.9055 39.6486C14.081 35.1692 16.2479 30.6984 18.4233 26.219C18.4747 26.1248 18.5004 26.0306 18.5775 25.962Z"/>
<path fill="#1FBD5A" d="M25.5684 39.9869C25.5942 39.9438 25.62 39.9008 25.6458 39.8578C25.6888 39.8922 25.7233 39.9266 25.6888 39.9783C25.6544 40.0127 25.6028 39.9955 25.5684 39.9869Z"/>
</svg>